HIERARCHY
ROOT RootJoint
{
    OFFSET   0.000000   0.000000   0.000000
    CHANNELS 6 Xposition Yposition Zposition Xrotation Yrotation Zrotation
    JOINT pelvis_lowerback
    {
        OFFSET   0.000000   0.093605   0.000000
        CHANNELS 3 Xrotation Yrotation Zrotation
        JOINT lowerback_torso
        {
            OFFSET   0.000000   0.100000   0.000000
            CHANNELS 3 Xrotation Yrotation Zrotation
            JOINT torso_head
            {
                OFFSET   0.000000   0.282350   0.000000
                CHANNELS 3 Xrotation Yrotation Zrotation
                End Site
                {
                    OFFSET   0.000000   0.192650   0.000000
                }
            }
            JOINT rTorso_Clavicle
            {
                OFFSET  -0.001000   0.157500   0.000000
                CHANNELS 3 Xrotation Yrotation Zrotation
                JOINT rShoulder
                {
                    OFFSET  -0.117647   0.000000   0.000000
                    CHANNELS 3 Xrotation Yrotation Zrotation
                    JOINT rElbow
                    {
                        OFFSET  -0.245000   0.000000   0.000000
                        CHANNELS 3 Xrotation Yrotation Zrotation
                        JOINT rWrist
                        {
                            OFFSET  -0.240000   0.000000   0.000000
                            CHANNELS 3 Xrotation Yrotation Zrotation
                            End Site
                            {
                                OFFSET  -0.116353  -0.002500   0.000000
                            }
                        }
                    }
                }
            }
            JOINT lTorso_Clavicle
            {
                OFFSET   0.001000   0.157500   0.000000
                CHANNELS 3 Xrotation Yrotation Zrotation
                JOINT lShoulder
                {
                    OFFSET   0.117647   0.000000   0.000000
                    CHANNELS 3 Xrotation Yrotation Zrotation
                    JOINT lElbow
                    {
                        OFFSET   0.245000   0.000000   0.000000
                        CHANNELS 3 Xrotation Yrotation Zrotation
                        JOINT lWrist
                        {
                            OFFSET   0.240000   0.000000   0.000000
                            CHANNELS 3 Xrotation Yrotation Zrotation
                            End Site
                            {
                                OFFSET   0.116353  -0.002500   0.000000
                            }
                        }
                    }
                }
            }
        }
    }
    JOINT rHip
    {
        OFFSET  -0.100000  -0.051395   0.000000
        CHANNELS 3 Xrotation Yrotation Zrotation
        JOINT rKnee
        {
            OFFSET   0.000000  -0.410000   0.000000
            CHANNELS 3 Xrotation Yrotation Zrotation
            JOINT rAnkle
            {
                OFFSET   0.000000  -0.390000   0.000000
                CHANNELS 3 Xrotation Yrotation Zrotation
                JOINT rToeJoint
                {
                    OFFSET   0.000000  -0.050000   0.130000
                    CHANNELS 3 Xrotation Yrotation Zrotation
                    End Site
                    {
                        OFFSET  -0.010000   0.002000   0.060000
                    }
                }
            }
        }
    }
    JOINT lHip
    {
        OFFSET   0.100000  -0.051395   0.000000
        CHANNELS 3 Xrotation Yrotation Zrotation
        JOINT lKnee
        {
            OFFSET   0.000000  -0.410000   0.000000
            CHANNELS 3 Xrotation Yrotation Zrotation
            JOINT lAnkle
            {
                OFFSET   0.000000  -0.390000   0.000000
                CHANNELS 3 Xrotation Yrotation Zrotation
                JOINT lToeJoint
                {
                    OFFSET   0.000000  -0.050000   0.130000
                    CHANNELS 3 Xrotation Yrotation Zrotation
                    End Site
                    {
                        OFFSET   0.010000   0.002000   0.060000
                    }
                }
            }
        }
    }
}
MOTION
Frames: 17
Frame Time:   0.008333
 -2.516575   0.911649   4.657381   1.922870 -12.912091  -0.053651   1.598630  -2.821463  -2.381832  -0.465115  -1.668454   1.545632  -0.795169  -1.476025   2.046490   3.521774  -2.382999   7.480661  13.482333  11.667214  49.448632   0.000108  17.728206   0.000677   9.630673   2.662602   1.676307   3.416477  -0.163995  -6.585316   8.998572 -12.033664 -46.037089  -0.000110 -14.548041   0.000116   9.306546  -2.844726  -0.222539 -14.837140  -4.434681  -0.523112   6.705041  -0.001329  -0.001350   1.448359 -11.107777  -0.069058  -0.666152   0.000101  -0.000231  12.196582   0.841099   3.363939  10.835290  -0.007115  -0.007179  -3.399123   1.558986  -3.148126 -30.235007   0.002833   0.005582
 -2.520402   0.912066   4.661716   1.918140 -13.262209  -0.059655   1.493812  -2.854065  -2.337321  -0.467790  -1.668638   1.541858  -0.788718  -1.456724   2.039619   3.565783  -2.384913   7.581821  13.470854  11.685618  49.353099   0.000104  17.811515   0.000801   9.628536   2.617071   1.669583   3.475037  -0.071121  -6.692522   9.005337 -11.743822 -46.015098  -0.000121 -14.656847   0.000093   9.308236  -2.782349  -0.176136 -14.520688  -4.338744  -0.241819   6.676564  -0.001015  -0.001027   1.640949 -10.721241  -0.250353  -0.526448   0.000172   0.000029  11.916548   0.856836   3.513692  12.008910  -0.008602  -0.008286  -2.811786   1.595568  -3.395039 -31.785666   0.001578   0.006704
 -2.524173   0.912499   4.666074   1.891865 -13.638464  -0.054782   1.399052  -2.863395  -2.295094  -0.455524  -1.661173   1.533568  -0.774118  -1.435476   2.035751   3.606100  -2.385383   7.672494  13.459494  11.704080  49.262083   0.000103  17.890816   0.000883   9.628146   2.579534   1.664947   3.522490   0.010151  -6.806390   9.002996 -11.480887 -46.004213  -0.000121 -14.763689   0.000090   9.306761  -2.750696  -0.128256 -14.175502  -4.224507   0.020608   6.636249  -0.000746  -0.000741   1.809184 -10.349584  -0.432542  -0.399498   0.000219   0.000187  11.634652   0.868395   3.637359  13.227688  -0.009965  -0.009451  -2.226759   1.617557  -3.623435 -33.045672   0.000721   0.007523
 -2.527911   0.912914   4.670463   1.865283 -14.048098  -0.041638   1.301295  -2.861377  -2.252475  -0.445635  -1.646265   1.524122  -0.758781  -1.414773   2.033071   3.642623  -2.384428   7.753138  13.448350  11.721901  49.175093   0.000100  17.965376   0.000944   9.628283   2.547161   1.660555   3.568228   0.088084  -6.920056   9.000536 -11.236467 -46.001172  -0.000119 -14.864572   0.000108   9.304872  -2.734047  -0.091187 -13.832876  -4.113588   0.269720   6.601869  -0.000542  -0.000511   1.964328 -10.001859  -0.605726  -0.284813   0.000239   0.000235  11.374930   0.874935   3.741825  14.410109  -0.011081  -0.010598  -1.652125   1.629455  -3.834007 -33.965183   0.000170   0.007938
 -2.531627   0.913296   4.674865   1.846110 -14.486803  -0.023866   1.199540  -2.854079  -2.208111  -0.442732  -1.627491   1.516302  -0.745111  -1.395246   2.031428   3.675176  -2.382231   7.825634  13.437017  11.739186  49.092019   0.000095  18.035524   0.000992   9.628456   2.519144   1.653812   3.612914   0.163068  -7.030212   8.999174 -11.007928 -46.002373  -0.000117 -14.958729   0.000144   9.302858  -2.722245  -0.063384 -13.502227  -4.009327   0.510636   6.576348  -0.000394  -0.000340   2.111396  -9.677789  -0.768181  -0.180242   0.000239   0.000210  11.138393   0.877354   3.833360  15.538805  -0.011947  -0.011638  -1.090999   1.633533  -4.027926 -34.580053  -0.000134   0.007847
 -2.535329   0.913640   4.679267   1.837330 -14.949960  -0.003835   1.095126  -2.844562  -2.161621  -0.447038  -1.607340   1.511558  -0.733470  -1.377017   2.030684   3.703944  -2.378903   7.891634  13.425340  11.756089  49.013112   0.000090  18.101575   0.001028   9.628513   2.495321   1.644246   3.655589   0.234174  -7.134953   8.998392 -10.794375 -46.005429  -0.000117 -15.046543   0.000192   9.300824  -2.712148  -0.040962 -13.186635  -3.912078   0.746377   6.559747  -0.000291  -0.000223   2.252466  -9.376047  -0.919849  -0.084559   0.000226   0.000143  10.923162   0.876879   3.915618  16.610300  -0.012583  -0.012517  -0.544925   1.632007  -4.206165 -34.931767  -0.000253   0.007240
 -2.539019   0.913941   4.683657   1.840343 -15.433884   0.017181   0.989597  -2.834570  -2.113098  -0.457624  -1.587393   1.510479  -0.723670  -1.360051   2.030679   3.729307  -2.374614   7.952409  13.413354  11.772673  48.938606   0.000085  18.163777   0.001053   9.628425   2.475459   1.632431   3.695364   0.300640  -7.233288   8.997524 -10.595221 -46.008890  -0.000119 -15.128621   0.000249   9.298824  -2.703450  -0.020725 -12.887161  -3.821659   0.978573   6.551375  -0.000220  -0.000151   2.388453  -9.095199  -1.061132   0.003109   0.000203   0.000055  10.727140   0.874474   3.990644  17.624683  -0.013013  -0.013216  -0.014759   1.626609  -4.369686 -35.056603  -0.000255   0.006166
 -2.542703   0.914143   4.687843   1.807210 -15.801392  -0.038312   0.907659  -2.832368  -2.027850  -0.394988  -1.610833   1.542260  -0.727532  -1.326043   2.052871   3.755763  -2.394919   7.993784  13.381530  11.792216  48.838222   0.000054  18.346465   0.001436   9.627995   2.396052   1.676757   3.674345   0.345087  -7.333127   8.922323 -10.368168 -46.012226  -0.000171 -15.258033   0.000225   9.290755  -2.692581  -0.020054 -12.534309  -3.743199   1.280925   6.519671  -0.000125  -0.000050   2.483589  -8.727933  -1.363372   0.193094   0.000437   0.000254  10.321534   0.855513   4.167983  19.119230  -0.014572  -0.013879   0.813493   1.549256  -4.597714 -31.885348   0.000521  -0.001708
 -2.546360   0.914436   4.692115   1.743312 -16.171783  -0.049229   0.824785  -2.811049  -1.995525  -0.321845  -1.625486   1.556171  -0.721381  -1.291929   2.075580   3.779924  -2.415491   8.039954  13.350482  11.811858  48.745142   0.000012  18.519940   0.001698   9.628341   2.341735   1.714317   3.650783   0.387347  -7.429238   8.849240 -10.156843 -46.008858  -0.000207 -15.380673   0.000185   9.280632  -2.698418   0.002599 -12.145947  -3.649984   1.520010   6.488350  -0.000052   0.000031   2.553855  -8.376933  -1.658894   0.366548   0.000598   0.000367   9.937554   0.843728   4.286781  20.579798  -0.015667  -0.014051   1.337858   1.467281  -4.857642 -32.476327   0.000177  -0.000239
 -2.550003   0.914738   4.696465   1.675346 -16.548973  -0.045662   0.730405  -2.780987  -1.972556  -0.259156  -1.631410   1.558814  -0.714843  -1.259445   2.094906   3.802528  -2.435193   8.076721  13.321876  11.830076  48.656434  -0.000046  18.682646   0.001881   9.628800   2.298083   1.750074   3.632258   0.432004  -7.519155   8.783371  -9.957691 -46.008193  -0.000232 -15.495028   0.000145   9.270586  -2.709155   0.023393 -11.751289  -3.558206   1.733524   6.463786  -0.000005   0.000083   2.611848  -8.047965  -1.939028   0.524261   0.000687   0.000394   9.581749   0.827940   4.381390  21.985040  -0.016410  -0.014110   1.871520   1.377741  -5.093207 -32.553586   0.000121  -0.000032
 -2.553640   0.915014   4.700867   1.612638 -16.929213  -0.038186   0.625636  -2.747055  -1.950387  -0.211174  -1.631722   1.558197  -0.710477  -1.229001   2.112664   3.822512  -2.453199   8.104393  13.295001  11.846858  48.569766  -0.000111  18.834941   0.002001   9.629201   2.259469   1.779244   3.618012   0.477646  -7.603173   8.724184  -9.769890 -46.009110  -0.000250 -15.601145   0.000110   9.260763  -2.719146   0.039641 -11.362791  -3.471264   1.935226   6.449579   0.000016   0.000102   2.666439  -7.740810  -2.201927   0.668013   0.000723   0.000368   9.253689   0.810681   4.465789  23.318963  -0.016818  -0.014020   2.403613   1.287778  -5.307593 -32.237615   0.000132  -0.000698
 -2.557272   0.915251   4.705295   1.558859 -17.308144  -0.031059   0.513451  -2.711990  -1.926859  -0.177226  -1.628838   1.557838  -0.708448  -1.200618   2.129613   3.839350  -2.468955   8.125217  13.269090  11.862755  48.485311  -0.000173  18.977576   0.002069   9.629476   2.224708   1.800221   3.606181   0.522312  -7.681109   8.670142  -9.593531 -46.010252  -0.000264 -15.699808   0.000084   9.251232  -2.727619   0.053678 -10.985857  -3.389970   2.130892   6.446812   0.000017   0.000089   2.721225  -7.454388  -2.447721   0.799504   0.000720   0.000314   8.951017   0.793093   4.546402  24.577870  -0.016929  -0.013769   2.928297   1.200642  -5.502455 -31.616463   0.000052  -0.001895
 -2.560898   0.915442   4.709732   1.515739 -17.682451  -0.025761   0.396588  -2.677342  -1.901704  -0.155468  -1.624346   1.559047  -0.708371  -1.174194   2.145918   3.853026  -2.482278   8.141346  13.243713  11.878224  48.403819  -0.000228  19.111286   0.002093   9.629599   2.193898   1.813815   3.595314   0.564644  -7.752948   8.619938  -9.428633 -46.010825  -0.000271 -15.791854   0.000067   9.242036  -2.735530   0.067776 -10.622944  -3.314384   2.322947   6.455088   0.000002   0.000050   2.777398  -7.187446  -2.677189   0.920011   0.000692   0.000248   8.671249   0.775684   4.626170  25.761984  -0.016786  -0.013370   3.441914   1.118026  -5.679407 -30.754668  -0.000210  -0.003355
 -2.564391   0.915747   4.713869   1.430787 -18.015083  -0.033501   0.372566  -2.643000  -1.876642  -0.130940  -1.631878   1.537754  -0.738360  -1.148328   2.175827   3.869039  -2.469231   8.199311  13.207809  11.922209  48.272494  -0.000346  19.329791   0.002209   9.649802   2.125254   1.850349   3.550534   0.597444  -7.850535   8.518185  -9.251404 -45.966038  -0.000330 -15.950552  -0.000013   9.226712  -2.729163   0.057045 -10.211932  -3.257410   2.513417   6.456703  -0.000001   0.000036   2.586999  -6.876404  -3.010944  -0.196865  -0.001181  -0.000318   8.208166   0.706109   4.710427  27.395311  -0.017853  -0.013791   3.607306   1.132934  -5.824744 -28.056708  -0.002879  -0.006652
 -2.567788   0.916149   4.717873   1.339984 -18.397903  -0.038071   0.356259  -2.582074  -1.863505  -0.102589  -1.618569   1.508086  -0.760848  -1.122737   2.202568   3.867077  -2.439634   8.254472  13.160066  11.976269  48.148144  -0.000468  19.542130   0.002280   9.670816   2.101414   1.878997   3.501609   0.624425  -7.944320   8.416633  -9.090993 -45.923199  -0.000348 -16.103573  -0.000045   9.210175  -2.753771   0.061068  -9.770133  -3.186711   2.694225   6.410182   0.000062   0.000155   2.247577  -6.572073  -3.310612  -0.273262  -0.001030  -0.000255   7.729697   0.643139   4.775710  28.980640  -0.018838  -0.014445   3.768561   1.148953  -5.959500 -25.538155  -0.005380  -0.009754
 -2.571101   0.916549   4.721791   1.246528 -18.796053  -0.026724   0.339783  -2.518200  -1.869990  -0.077378  -1.597717   1.467944  -0.779692  -1.098676   2.225798   3.855679  -2.403119   8.301565  13.107518  12.033879  48.031537  -0.000594  19.745286   0.002331   9.690377   2.107395   1.900954   3.454575   0.648773  -8.027889   8.320575  -8.942660 -45.882677  -0.000344 -16.247886  -0.000045   9.194327  -2.790775   0.065071  -9.325484  -3.098188   2.849843   6.343254   0.000135   0.000307   1.932399  -6.263942  -3.590959  -0.330527  -0.000883  -0.000205   7.254316   0.581717   4.821806  30.463780  -0.019491  -0.014762   3.919347   1.163451  -6.085350 -23.230575  -0.007652  -0.012038
 -2.574342   0.916929   4.725638   1.150593 -19.196420  -0.009419   0.322137  -2.456132  -1.885499  -0.056675  -1.574785   1.421587  -0.796846  -1.076314   2.246131   3.839601  -2.364353   8.341200  13.054463  12.090884  47.919881  -0.000710  19.937243   0.002358   9.708690   2.127656   1.913915   3.409946   0.670756  -8.104967   8.230277  -8.804935 -45.844496  -0.000327 -16.383052  -0.000029   9.179282  -2.830785   0.068499  -8.885025  -2.999330   2.988763   6.275968   0.000189   0.000427   1.628185  -5.960050  -3.851598  -0.373144  -0.000747  -0.000164   6.786924   0.521658   4.864528  31.841917  -0.019814  -0.014673   4.059730   1.176788  -6.202807 -21.116705  -0.009675  -0.013449
